<svg xmlns="http://www.w3.org/2000/svg" viewBox="0 0 512 512">
  <defs>
    <linearGradient id="bg" x1="0%" y1="0%" x2="100%" y2="100%">
      <stop offset="0%" style="stop-color:#ff6b9d"/>
      <stop offset="100%" style="stop-color:#c084fc"/>
    </linearGradient>
  </defs>
  <rect width="512" height="512" rx="108" fill="url(#bg)"/>
  <g transform="translate(256,240)">
    <!-- Heart shape -->
    <path d="M0,45
             C0,45 -100,-50 -100,-100
             C-100,-140 -60,-160 -25,-140
             C-5,-128 0,-105 0,-105
             C0,-105 5,-128 25,-140
             C60,-160 100,-140 100,-100
             C100,-50 0,45 0,45Z"
          fill="white" opacity="0.95"/>
    <!-- Sparkle left -->
    <circle cx="-130" cy="-80" r="8" fill="white" opacity="0.7"/>
    <circle cx="-140" cy="-40" r="5" fill="white" opacity="0.5"/>
    <!-- Sparkle right -->
    <circle cx="130" cy="-80" r="8" fill="white" opacity="0.7"/>
    <circle cx="140" cy="-40" r="5" fill="white" opacity="0.5"/>
    <!-- Sparkle top -->
    <circle cx="0" cy="-170" r="6" fill="white" opacity="0.6"/>
  </g>
  <!-- Text -->
  <text x="256" y="420" text-anchor="middle" font-family="Arial,sans-serif" font-size="48" font-weight="bold" fill="white" opacity="0.95">Self Love</text>
</svg>
